<?xml version="1.0" ?><svg id="Layer_1" style="enable-background:new 0 0 128 128;" version="1.1" viewBox="0 0 128 128" xml:space="preserve" xmlns="http://www.w3.org/2000/svg" xmlns:xlink="http://www.w3.org/1999/xlink"><style type="text/css">
	.st0{fill:#ffffff;}
</style><path class="st0" d="M103.2,114.6v-91l-5.1-5.1V6.3H29.9v12.2l-5.1,5.1v91h-5.1v5.1h88.6v-5.1H103.2z M84.3,9.6c2,0,3.6,1.6,3.6,3.6  s-1.6,3.6-3.6,3.6s-3.6-1.6-3.6-3.6S82.4,9.6,84.3,9.6z M74.2,9.6c2,0,3.6,1.6,3.6,3.6s-1.6,3.6-3.6,3.6s-3.6-1.6-3.6-3.6  S72.2,9.6,74.2,9.6z M64,9.6c2,0,3.6,1.6,3.6,3.6S66,16.7,64,16.7s-3.6-1.6-3.6-3.6S62.1,9.6,64,9.6z M53.8,9.6c2,0,3.6,1.6,3.6,3.6  s-1.6,3.6-3.6,3.6s-3.6-1.6-3.6-3.6S51.9,9.6,53.8,9.6z M43.7,9.6c2,0,3.6,1.6,3.6,3.6s-1.6,3.6-3.6,3.6s-3.6-1.6-3.6-3.6  S41.7,9.6,43.7,9.6z M79.3,53.1v10.2H69.1V53.1H79.3z M69.1,45.1V34.9h10.2v10.2C79.3,45.1,69.1,45.1,69.1,45.1z M69.3,71.2h10.2  v10.2H69.3V71.2z M98.1,44.3v10.2H88V44.3H98.1z M88,38.8V28.7h10.2v10.2H88V38.8z M98.1,59.5v10.2H88V59.5H98.1z M98.1,74.3v10.2  H88V74.3H98.1z M98.1,89.6v10.2H88V89.6H98.1z M48.8,63.2V53.1H59v10.2L48.8,63.2L48.8,63.2z M58.5,71.2v10.2H48.4V71.2H58.5z   M48.8,45.1V34.9H59v10.2C59,45.1,48.8,45.1,48.8,45.1z M29.9,28.7H40v10.2H29.9V28.7z M29.9,44.3H40v10.2H29.9V44.3z M29.9,59.5H40  v10.2H29.9V59.5z M29.9,74H40v10.2H29.9V74z M29.9,89.3H40v10.2H29.9V89.3z M53.9,93.6h20.3v21H53.9V93.6z"/></svg>