<?xml version="1.0" ?><svg viewBox="0 0 128 128" xmlns="http://www.w3.org/2000/svg"><defs><style>.cls-1{fill:#ffffff;}</style></defs><g id="Agriculture"><path class="cls-1" d="M84,22h5v5a1,1,0,0,0,1,1h2v5a1,1,0,0,0,1,1h4a1,1,0,0,0,1-1V28h3v5a1,1,0,0,0,1,1h4a1,1,0,0,0,1-1V28h1a1,1,0,0,0,1-1V20h3a1,1,0,0,0,0-2H91V16a1,1,0,0,0-1-1H87a4,4,0,0,0-4,4v2A1,1,0,0,0,84,22ZM96,32H94V28h2Zm9,0h-2V28h2Zm2-12v6H91V20ZM85,19a2,2,0,0,1,2-2h2v3H85Z"/><path class="cls-1" d="M70,71h1a1,1,0,0,0,1-1V67a4,4,0,0,0-4-4H61a1,1,0,0,0-1,1v1H57a1,1,0,0,0-1,1v3H35V68a4,4,0,0,0-4-4H30a1,1,0,0,0-1,1v9a1,1,0,0,0,1,1H49.53l4,4.85a5.92,5.92,0,0,0-.32.89,1,1,0,0,0,0,.14,6.18,6.18,0,0,0-.12.62H45.36a1,1,0,0,0-.87.5l-2.86,5H39.07a1,1,0,1,0,0,2h3.14a1,1,0,0,0,.87-.5l2.86-5h7.15A6.49,6.49,0,0,0,66,82.5a6.84,6.84,0,0,0,0-.79l0-.19c0-.21-.08-.43-.13-.64a1,1,0,0,0,0-.14,5.92,5.92,0,0,0-.32-.89l4.34-5.21a1.28,1.28,0,0,0,.15-.25,0,0,0,0,1,0,0,.87.87,0,0,0,.06-.32s0,0,0,0Zm-2,2H58V71H68Zm-6-8h6a2,2,0,0,1,2,2v2H62V65Zm-4,2h2v2H58ZM31,66a2,2,0,0,1,2,2v1H31Zm0,5H56v2H31ZM59.5,87A4.51,4.51,0,0,1,55,82.5a4.15,4.15,0,0,1,.08-.79,1.89,1.89,0,0,1,.05-.23,4.19,4.19,0,0,1,.19-.63c0-.08.07-.15.1-.22a3.92,3.92,0,0,1,.29-.53l.15-.23a4.87,4.87,0,0,1,.35-.42l.18-.19a4.74,4.74,0,0,1,.49-.4l.25-.17a3.5,3.5,0,0,1,.47-.25l.21-.1a3.83,3.83,0,0,1,.68-.21l.22,0a3.94,3.94,0,0,1,1.58,0l.22,0a3.83,3.83,0,0,1,.68.21l.21.1a3.5,3.5,0,0,1,.47.25l.25.17a4.74,4.74,0,0,1,.49.4l.18.19a4.87,4.87,0,0,1,.35.42l.15.23a3.92,3.92,0,0,1,.29.53c0,.07.07.14.1.22a4.19,4.19,0,0,1,.19.63,1.89,1.89,0,0,1,.05.23,4.15,4.15,0,0,1,.08.79A4.51,4.51,0,0,1,59.5,87Zm4.78-8.9,0,0c-.12-.13-.25-.26-.38-.38l-.08-.07-.33-.27,0,0-.1-.07,0,0a6.5,6.5,0,0,0-2-1l-.13,0a4.53,4.53,0,0,0-.64-.13l-.17,0a6.27,6.27,0,0,0-1.58,0l-.17,0a4.53,4.53,0,0,0-.64.13l-.13,0a6.5,6.5,0,0,0-2,1l0,0-.1.07,0,0-.33.27-.08.07c-.13.12-.26.25-.38.38l-.05,0L52.14,75H66.86Z"/><path class="cls-1" d="M112,111H16a1,1,0,0,0,0,2h96a1,1,0,0,0,0-2Z"/><path class="cls-1" d="M16,105H51a1,1,0,0,0,0-2H16a1,1,0,0,0,0,2Z"/><path class="cls-1" d="M112,103H64a1,1,0,0,0,0,2h48a1,1,0,0,0,0-2Z"/><path class="cls-1" d="M39,95a1,1,0,0,0,0,2H65.61a1,1,0,1,0,0-2Z"/><path class="cls-1" d="M112,95H75.5a1,1,0,0,0,0,2H112a1,1,0,0,0,0-2Z"/><path class="cls-1" d="M112,87H71a1,1,0,0,0,0,2h41a1,1,0,0,0,0-2Z"/><path class="cls-1" d="M112,80H76a1,1,0,0,0,0,2h36a1,1,0,0,0,0-2Z"/><path class="cls-1" d="M93,75a1,1,0,0,0,0-2H75a1,1,0,0,0,0,2Z"/><path class="cls-1" d="M112,73H102a1,1,0,0,0,0,2h10a1,1,0,0,0,0-2Z"/><path class="cls-1" d="M16,80H37a1,1,0,0,0,0-2H16a1,1,0,0,0,0,2Z"/><path class="cls-1" d="M16,88H29a1,1,0,0,0,0-2H16a1,1,0,0,0,0,2Z"/><path class="cls-1" d="M16,97H27a1,1,0,0,0,0-2H16a1,1,0,0,0,0,2Z"/><path class="cls-1" d="M16,58H51a1,1,0,0,0,0-2H16a1,1,0,0,0,0,2Z"/><path class="cls-1" d="M112,56H64a1,1,0,0,0,0,2h48a1,1,0,0,0,0-2Z"/><path class="cls-1" d="M66.61,49a1,1,0,0,0-1-1H39a1,1,0,0,0,0,2H65.61A1,1,0,0,0,66.61,49Z"/><path class="cls-1" d="M112,48H75.5a1,1,0,0,0,0,2H112a1,1,0,0,0,0-2Z"/><path class="cls-1" d="M16,50H27a1,1,0,0,0,0-2H16a1,1,0,0,0,0,2Z"/><path class="cls-1" d="M80.61,41a1,1,0,0,0-1-1H53a1,1,0,0,0,0,2H79.61A1,1,0,0,0,80.61,41Z"/><path class="cls-1" d="M112,40H89.5a1,1,0,0,0,0,2H112a1,1,0,0,0,0-2Z"/><path class="cls-1" d="M16,42H43a1,1,0,0,0,0-2H16a1,1,0,0,0,0,2Z"/><path class="cls-1" d="M16,31h4v4a1,1,0,0,0,2,0V31h4v4a1,1,0,0,0,2,0V31h4v4a1,1,0,0,0,2,0V31h4v4a1,1,0,0,0,2,0V31h4v4a1,1,0,0,0,2,0V31h4v4a1,1,0,0,0,2,0V31h4v4a1,1,0,0,0,2,0V31h4v4a1,1,0,0,0,2,0V31h4v4a1,1,0,0,0,2,0V31h4v4a1,1,0,0,0,2,0V31h4v4a1,1,0,0,0,2,0V31a1,1,0,0,0,0-2V25a1,1,0,0,0-2,0v4H76V25a1,1,0,0,0-2,0v4H70V25a1,1,0,0,0-2,0v4H64V25a1,1,0,0,0-2,0v4H58V25a1,1,0,0,0-2,0v4H52V25a1,1,0,0,0-2,0v4H46V25a1,1,0,0,0-2,0v4H40V25a1,1,0,0,0-2,0v4H34V25a1,1,0,0,0-2,0v4H28V25a1,1,0,0,0-2,0v4H22V25a1,1,0,0,0-2,0v4H16a1,1,0,0,0,0,2Z"/></g></svg>