<svg width="15" height="18" viewBox="0 0 15 18" fill="none" xmlns="http://www.w3.org/2000/svg">
<path fill-rule="evenodd" clip-rule="evenodd" d="M7.5001 -0.000164032C10.3476 -0.000164032 12.6564 2.3598 12.6564 5.27094C12.6564 6.91147 11.923 8.37702 10.7732 9.34373C13.2753 10.5086 15.0002 12.9675 15.0002 15.8125C15.0002 15.9293 14.9973 16.0454 14.9915 16.1608C14.9972 16.2035 15.0002 16.2471 15.0002 16.2914C15.0002 16.821 14.5803 17.2498 14.0626 17.2498C13.5448 17.2498 13.125 16.821 13.125 16.2914H12.9854C13.0002 16.1337 13.0077 15.974 13.0077 15.8125C13.0077 12.9014 10.5486 10.5417 7.51463 10.5417C4.48104 10.5417 2.02152 12.9014 2.02152 15.8125C2.02152 15.974 2.02908 16.1337 2.04389 16.2914H1.87525C1.87525 16.821 1.4554 17.2498 0.937628 17.2498C0.419858 17.2498 7.98702e-06 16.821 7.98702e-06 16.2914C7.98702e-06 16.2471 0.00295353 16.2035 0.00865543 16.1608C0.00291228 16.0454 7.98702e-06 15.9293 7.98702e-06 15.8125C7.98702e-06 12.9676 1.72481 10.5087 4.2269 9.34378C3.07708 8.37707 2.34384 6.9115 2.34384 5.27094C2.34384 2.3598 4.65218 -0.000164032 7.5001 -0.000164032ZM10.7811 5.27094C10.7811 3.41828 9.31245 1.91659 7.5001 1.91659C5.68774 1.91659 4.21865 3.41828 4.21865 5.27094C4.21865 7.1233 5.68774 8.62499 7.5001 8.62499C9.31245 8.62499 10.7811 7.1233 10.7811 5.27094Z" fill="white" fill-opacity="0.75"/>
</svg>
